<svg width="65" height="29" viewBox="0 0 65 29" fill="none" xmlns="http://www.w3.org/2000/svg">
<path d="M5.69718 2.52644C5.61705 2.44004 5.50086 2.34971 5.34862 2.25546C5.19637 2.15335 5.01608 2.0591 4.80774 1.9727C4.59941 1.8863 4.37505 1.81561 4.13466 1.76063C3.89427 1.70565 3.64587 1.67816 3.38946 1.67816C2.82856 1.67816 2.41188 1.78027 2.13945 1.98448C1.86701 2.1887 1.73079 2.47146 1.73079 2.83276C1.73079 3.09981 1.80691 3.31188 1.95916 3.46897C2.1114 3.6182 2.34378 3.74387 2.65628 3.84598C2.96878 3.94809 3.36141 4.05805 3.83418 4.17586C4.41111 4.30939 4.91191 4.47041 5.3366 4.65891C5.76128 4.83956 6.0858 5.08305 6.31016 5.38937C6.53453 5.69569 6.64671 6.1002 6.64671 6.60288C6.64671 7.02702 6.56658 7.39225 6.40632 7.69857C6.24606 8.00489 6.0217 8.25623 5.73324 8.45259C5.44477 8.6411 5.11223 8.78248 4.73563 8.87673C4.35902 8.96313 3.95437 9.00633 3.52167 9.00633C3.09699 9.00633 2.6723 8.96313 2.24762 8.87673C1.83095 8.79033 1.4303 8.66466 1.04568 8.49972C0.669078 8.32692 0.320516 8.11878 0 7.87529L0.612987 6.74426C0.717155 6.84637 0.865394 6.96025 1.0577 7.08592C1.25803 7.20374 1.48639 7.31763 1.74281 7.42759C2.00723 7.53755 2.29169 7.63181 2.59618 7.71035C2.90869 7.78104 3.22519 7.81639 3.54571 7.81639C4.08258 7.81639 4.49123 7.72606 4.77169 7.54541C5.06015 7.3569 5.20438 7.08985 5.20438 6.74426C5.20438 6.4615 5.11223 6.23765 4.92794 6.07271C4.74364 5.89991 4.47521 5.7546 4.12264 5.63679C3.77007 5.51897 3.3494 5.40115 2.86061 5.28334C2.2997 5.1341 1.83095 4.97309 1.45434 4.80029C1.07774 4.61964 0.793278 4.39186 0.600968 4.11696C0.416671 3.8342 0.324523 3.47682 0.324523 3.04483C0.324523 2.49502 0.460742 2.03161 0.733181 1.6546C1.00562 1.26973 1.37421 0.983046 1.83896 0.79454C2.31172 0.59818 2.84058 0.5 3.42552 0.5C3.81014 0.5 4.17472 0.543199 4.51928 0.629598C4.86383 0.708142 5.18435 0.818104 5.48083 0.959483C5.78532 1.10086 6.06176 1.26188 6.31016 1.44253L5.69718 2.52644Z" fill="#1E90FF"/>
<path d="M15.1724 8.92386V2.96236L12.6603 7.4865H11.8671L9.34299 2.96236V8.92386H7.99682V0.558908H9.43914L12.2637 5.67213L15.0882 0.558908H16.5306V8.92386H15.1724Z" fill="#1E90FF"/>
<path fill-rule="evenodd" clip-rule="evenodd" d="M22.1931 0.558908H20.919L17.5777 8.92386H19.008L19.8974 6.65001H23.1907L24.0921 8.92386H25.5104L22.1931 0.558908ZM21.5561 2.00805L22.9263 5.67213H20.1378L21.5561 2.00805Z" fill="#1E90FF"/>
<path fill-rule="evenodd" clip-rule="evenodd" d="M26.5658 8.92386V0.558908H30.2798C30.6644 0.558908 31.017 0.637452 31.3375 0.79454C31.658 0.951629 31.9344 1.15977 32.1668 1.41897C32.4072 1.67816 32.5915 1.96878 32.7197 2.29081C32.8559 2.61284 32.924 2.94272 32.924 3.28046C32.924 3.64962 32.8559 4.00307 32.7197 4.34081C32.5835 4.67855 32.3872 4.96916 32.1308 5.21265C31.8824 5.45613 31.5899 5.63286 31.2533 5.74282L33.2606 8.92386H31.7461L29.8952 6.0138H27.912V8.92386H26.5658ZM27.912 4.84742H30.2678C30.5162 4.84742 30.7365 4.77673 30.9288 4.63535C31.1211 4.49397 31.2734 4.30546 31.3856 4.06983C31.4977 3.82634 31.5538 3.56322 31.5538 3.28046C31.5538 2.98985 31.4897 2.73065 31.3615 2.50288C31.2333 2.26724 31.065 2.07874 30.8567 1.93736C30.6564 1.79598 30.436 1.72529 30.1956 1.72529H27.912V4.84742Z" fill="#1E90FF"/>
<path d="M37.8555 1.72529H40.6921V0.558908H33.6488V1.72529H36.4973V8.92386H37.8555V1.72529Z" fill="#1E90FF"/>
<path d="M10.7466 27.583C11.585 27.0653 12.4433 26.5765 13.3201 26.1181V12.3947H10.7466V19.1317H2.59341V12.3947H0.0427017V28.5H2.59341V21.4001H10.7466V27.583Z" fill="#1E90FF"/>
<path d="M55.793 28.5H65V26.2543H56.4597V21.332H63.6791V19.2224H56.4597V14.6404H64.795V12.3947H53.909V27.3004C54.5484 27.6838 55.1766 28.0838 55.793 28.5Z" fill="#1E90FF"/>
<path d="M50.2624 25.3545V12.3947H47.5295L42.1776 22.2393L36.8257 12.3947H34.0928V21.4391C34.9499 21.4701 35.8004 21.5271 36.6435 21.6092V17.0221L39.3567 21.9636C41.0628 22.2439 42.7337 22.6279 44.3628 23.109L47.689 17.0221V24.2473C48.5616 24.5882 49.4198 24.9576 50.2624 25.3545Z" fill="#1E90FF"/>
<path d="M31.3984 21.4273C31.4342 21.1123 31.452 20.7932 31.452 20.47C31.452 19.4568 31.2622 18.4663 30.8827 17.4985C30.5183 16.5306 29.9945 15.6536 29.3113 14.8672C28.6432 14.0808 27.8309 13.4532 26.8744 12.9845C25.9331 12.5157 24.8855 12.2813 23.7316 12.2813C22.6232 12.2813 21.5908 12.5081 20.6343 12.9618C19.693 13.4003 18.8731 14.0052 18.1747 14.7765C17.4763 15.5326 16.9297 16.4021 16.5349 17.3851C16.1402 18.3529 15.9428 19.3737 15.9428 20.4473C15.9428 21.4757 16.125 22.4813 16.4894 23.4643C16.6216 23.8013 16.7721 24.1273 16.9411 24.4423C17.7147 24.1287 18.4999 23.8377 19.2959 23.5701C19.1447 23.2782 19.0139 22.9708 18.9035 22.6476C18.6605 21.9369 18.5391 21.2035 18.5391 20.4473C18.5391 19.7215 18.6529 19.0107 18.8807 18.3151C19.1236 17.6195 19.4652 16.9919 19.9055 16.4324C20.3458 15.8728 20.8848 15.4267 21.5225 15.094C22.1602 14.7613 22.8889 14.595 23.7088 14.595C24.4831 14.595 25.1815 14.7538 25.804 15.0713C26.4417 15.3889 26.9883 15.8275 27.4438 16.387C27.8993 16.9314 28.2409 17.559 28.4686 18.2697C28.7115 18.9653 28.833 19.6912 28.833 20.4473C28.833 20.8265 28.8006 21.2056 28.7358 21.5847C29.6157 21.5046 30.5035 21.4518 31.3984 21.4273Z" fill="#1E90FF"/>
</svg>
