<svg width="22" height="22" viewBox="0 0 22 22" fill="none" xmlns="http://www.w3.org/2000/svg">
<path d="M5.1823 7.26173H16.8177V16.7433C16.8177 17.3066 16.361 17.7633 15.7985 17.7633H14.633V20.6509C14.633 21.3842 14.0481 21.9785 13.3261 21.9785C12.6023 21.9785 12.0182 21.3842 12.0182 20.6509V17.7633H9.98277V20.6509C9.98277 21.3842 9.39671 21.9785 8.67475 21.9785C7.95292 21.9785 7.36691 21.3842 7.36691 20.6509V17.7633H6.2025C5.63979 17.7633 5.18225 17.3066 5.18225 16.7433L5.1823 7.26173ZM2.90216 7.18435C2.17281 7.18435 1.58203 7.78432 1.58203 8.52497V13.7645C1.58203 14.5042 2.17281 15.1053 2.90216 15.1053C3.63164 15.1053 4.22229 14.5042 4.22229 13.7645V8.52497C4.22229 7.78432 3.63164 7.18435 2.90216 7.18435ZM16.8178 6.30628H5.1823C5.3259 4.64863 6.40119 3.22216 7.94914 2.39621L6.84287 0.771821C6.69368 0.552766 6.74997 0.253876 6.96945 0.104731C7.18868 -0.0444135 7.48697 0.0123052 7.63689 0.231188L8.84263 2.00288C9.51114 1.7717 10.2368 1.63897 11 1.63897C11.7641 1.63897 12.4898 1.7717 13.1583 2.00318L14.364 0.231833C14.5121 0.0123482 14.8113 -0.0443706 15.0306 0.104774C15.25 0.253918 15.3063 0.552809 15.1571 0.771864L14.0518 2.39625C15.5997 3.22168 16.6742 4.64816 16.8178 6.30628ZM9.18952 4.0539C9.18952 3.69842 8.90167 3.4101 8.54632 3.4101C8.19007 3.4101 7.90222 3.69842 7.90222 4.0539C7.90222 4.40921 8.19101 4.6974 8.54632 4.6974C8.90163 4.6974 9.18952 4.40921 9.18952 4.0539ZM14.1794 4.0539C14.1794 3.69842 13.8905 3.4101 13.5353 3.4101C13.179 3.4101 12.892 3.69842 12.892 4.0539C12.892 4.40921 13.179 4.6974 13.5353 4.6974C13.8906 4.6974 14.1794 4.40921 14.1794 4.0539ZM19.0988 7.1825C18.3702 7.1825 17.7777 7.78338 17.7777 8.52407V13.7654C17.7777 14.5061 18.3702 15.1071 19.0988 15.1071C19.8283 15.1071 20.4179 14.5061 20.4179 13.7654V8.52407C20.418 7.78338 19.8283 7.1825 19.0988 7.1825Z" fill="white"/>
</svg>
