<svg width="18" height="22" viewBox="0 0 18 22" fill="none" xmlns="http://www.w3.org/2000/svg">
<path d="M15.0341 11.6994C15.045 10.8562 15.2702 10.0294 15.6888 9.29595C16.1075 8.56253 16.7058 7.94631 17.4283 7.50464C16.9694 6.85284 16.3639 6.31644 15.66 5.93803C14.956 5.55962 14.1731 5.34964 13.3733 5.32476C11.6672 5.14668 10.0132 6.33993 9.1438 6.33993C8.25758 6.33993 6.919 5.34244 5.47757 5.37193C4.54521 5.40188 3.63656 5.67148 2.84014 6.15446C2.04372 6.63744 1.3867 7.31732 0.933086 8.12787C-1.03186 11.5107 0.433813 16.4824 2.31606 19.2169C3.25779 20.5559 4.3584 22.0516 5.79853 21.9985C7.20778 21.9404 7.73411 21.1049 9.4352 21.1049C11.1205 21.1049 11.6143 21.9985 13.0837 21.9648C14.5958 21.9404 15.5486 20.6199 16.4573 19.2682C17.1339 18.3141 17.6546 17.2597 18 16.1439C17.1215 15.7744 16.3717 15.1559 15.8443 14.3656C15.3169 13.5752 15.0351 12.648 15.0341 11.6994Z" fill="white"/>
<path d="M12.2589 3.52654C13.0835 2.54231 13.4897 1.27724 13.3913 0C12.1316 0.131561 10.968 0.730217 10.1324 1.67669C9.72383 2.13906 9.4109 2.67698 9.21152 3.25968C9.01213 3.84239 8.9302 4.45846 8.97039 5.07267C9.60045 5.07912 10.2238 4.94332 10.7934 4.67551C11.363 4.40769 11.8641 4.01484 12.2589 3.52654Z" fill="white"/>
</svg>
